<svg width="160" height="160" viewBox="0 0 160 160" xmlns="http://www.w3.org/2000/svg" role="img" aria-labelledby="title">
  <title id="title">Burger House</title>
  <rect width="160" height="160" rx="28" fill="#111111"/>
  <circle cx="80" cy="80" r="56" fill="#d62828"/>
  <path d="M38 70c4-25 25-40 42-40s38 15 42 40H38z" fill="#f4b942"/>
  <path d="M43 78h74c7 0 12 5 12 12H31c0-7 5-12 12-12z" fill="#f4efe7"/>
  <path d="M31 95h98v14H31z" fill="#7a2e18"/>
  <path d="M35 116h90c-4 9-13 14-25 14H60c-12 0-21-5-25-14z" fill="#f4b942"/>
  <circle cx="64" cy="52" r="4" fill="#111111"/>
  <circle cx="82" cy="47" r="4" fill="#111111"/>
  <circle cx="98" cy="55" r="4" fill="#111111"/>
</svg>
